<?xml version="1.0" encoding="utf-8" ?>
<svg xmlns="http://www.w3.org/2000/svg" xmlns:xlink="http://www.w3.org/1999/xlink" width="1000" height="1000">
	<path fill="#95BCE5" transform="matrix(900 0 0 900 50 50)" d="M0.73039228 0.57355785C0.75291485 0.58681846 0.77434504 0.59140027 0.80018717 0.58701515C0.8362422 0.57876611 0.85973066 0.54961383 0.87991011 0.5205797L0.88453686 0.51389349C0.90132046 0.48986435 0.91666412 0.46552014 0.92982161 0.43928802L0.93117052 0.43658555C0.95350724 0.39192688 0.97492731 0.34627652 0.98613483 0.29737175L0.98794752 0.28926778C0.99405301 0.26293981 0.99986351 0.23515415 0.99928248 0.2080276L0.9991256 0.20356703C0.99869156 0.17973071 0.99666268 0.15548497 0.98923701 0.13269413L0.98829383 0.12982273C0.97924083 0.1012218 0.96520686 0.078539073 0.94413137 0.057242692L0.94194525 0.055040836C0.92904365 0.041983426 0.91539377 0.030932009 0.89868093 0.02293843L0.89602202 0.021741271C0.88872445 0.018327415 0.88144642 0.015289307 0.87372518 0.01292944L0.86579829 0.01034081C0.85058141 0.0050637126 0.83588767 0.0025861859 0.81988406 0.0010228753L0.81791484 0.0029900074C0.81591517 0.00099343061 0.81591517 0.00099343061 0.80677593 0.00058043003L0.80302221 0.00041568279L0.799321 0.0002143383L0.79574692 6.9916248e-05C0.79210168 -0.0001077652 0.7895115 3.5762787e-07 0.7860055 0.0010228753L0.78344607 0.0020093322L0.78147268 3.9160252e-05L0.76290953 0.0031782985L0.73575115 0.0077971816L0.73112023 0.0085238814L0.72238469 0.0098723769C0.70809489 0.011690676 0.69494736 0.015161514 0.68130714 0.019635081L0.67498356 0.021679997C0.66418087 0.025131226 0.65352476 0.028808415 0.64298701 0.032977223C0.6375311 0.035159826 0.63208491 0.037293494 0.62655014 0.039259791C0.61225021 0.044254601 0.59853154 0.050242126 0.58478308 0.056574047L0.57887453 0.059270144C0.56171823 0.067055225 0.53748125 0.075382829 0.52640182 0.09147799C0.52336848 0.098065615 0.52336848 0.098065615 0.52541697 0.10622621L0.52892995 0.1099726C0.53233045 0.1136198 0.53560024 0.1151734 0.5401895 0.11704159C0.55026454 0.11254817 0.5599947 0.10753387 0.56966579 0.10226387C0.61327451 0.0784899 0.6589514 0.059120655 0.70701152 0.046220899L0.71056622 0.045269072C0.72296596 0.041914523 0.73529619 0.03888607 0.74803013 0.037067413L0.75291532 0.036421001C0.76594436 0.034599304 0.7787177 0.033055782 0.79190475 0.033321381L0.80050939 0.033518314C0.82942712 0.033891559 0.85597837 0.038512588 0.88233274 0.050940335L0.88488328 0.052151442C0.90926808 0.063260019 0.93408608 0.08778125 0.94666231 0.11148632L0.94889605 0.11605811C0.96453726 0.14628196 0.96938282 0.18012404 0.96684164 0.21374989L0.96662593 0.21634662L0.96859491 0.21831238L0.96662593 0.22027802L0.96626192 0.22520339L0.96563923 0.23305774C0.96464568 0.25814164 0.95871699 0.28242695 0.95056236 0.3061223C0.94888806 0.31076312 0.94726312 0.31525636 0.9461109 0.32004452C0.94390494 0.32964075 0.94080257 0.33867633 0.93717831 0.34782016L0.93392885 0.35596335C0.93013674 0.36564565 0.92613822 0.37510419 0.92146033 0.38439536C0.91885042 0.38947868 0.91627026 0.39453232 0.91384751 0.39970398C0.90768236 0.41289866 0.90091658 0.42563128 0.89366817 0.43825555L0.89183837 0.44144082C0.87705398 0.46723104 0.86283296 0.49344313 0.84319514 0.51593888L0.83630252 0.52386236C0.82338023 0.53922141 0.80921829 0.55235696 0.78843814 0.55524766C0.78442979 0.55555248 0.78442979 0.55555248 0.78092378 0.55659461L0.77852136 0.55752099C0.7763344 0.55533612 0.7763344 0.55533612 0.7646147 0.55236685C0.75451034 0.54986942 0.74803025 0.54686093 0.74062419 0.53925085L0.73740441 0.53552556C0.72925901 0.52621341 0.72518182 0.51661742 0.72336984 0.50442564C0.72295606 0.48940206 0.7279886 0.47729886 0.73769897 0.46593297C0.74988168 0.45331836 0.76333451 0.44352567 0.78153443 0.44291615C0.79943877 0.44368303 0.81322646 0.45182407 0.82553703 0.46433032L0.8290624 0.46798515L0.8393153 0.4785012L0.84155172 0.48083031L0.84942782 0.48083031C0.85927767 0.47492933 0.85927767 0.47492933 0.86321706 0.46509731C0.8558504 0.4443711 0.83427256 0.42670274 0.81479234 0.41716576L0.81200337 0.4159385C0.80554479 0.41304624 0.79880846 0.41013587 0.79163879 0.40997875L0.78836644 0.41003692C0.78209579 0.41010654 0.77591097 0.41038167 0.76965731 0.41102087C0.74642485 0.41576982 0.72528028 0.42708635 0.71033055 0.44562972C0.69504571 0.4667294 0.6894815 0.48811412 0.69302696 0.51383507C0.69741929 0.53884768 0.70985776 0.55844319 0.73039228 0.57355785ZM0.72612965 0.87090778L0.72928274 0.87214684C0.75388211 0.88225496 0.77797127 0.88528335 0.80372483 0.87754548L0.80806977 0.87607849C0.83191097 0.86812627 0.85210991 0.85236526 0.86554319 0.83110845C0.88301426 0.80096316 0.88777095 0.77155542 0.87867111 0.73751676C0.87198406 0.71430326 0.85728031 0.69197464 0.8360374 0.67979252L0.8317067 0.6774714C0.82224959 0.67226124 0.81281483 0.66724694 0.80276954 0.66321576C0.79707706 0.66097403 0.79156196 0.65851593 0.7860468 0.65584159C0.77965528 0.65272498 0.77332276 0.64962769 0.76670468 0.6469928C0.74863285 0.64017916 0.73192012 0.63130081 0.71588695 0.62052488L0.71253955 0.61824489C0.70450222 0.61275744 0.69753939 0.60688758 0.69087201 0.5997988L0.69087154 0.59782994C0.67557746 0.58368409 0.6667434 0.56705785 0.66446853 0.54610574C0.66428131 0.54375589 0.66428131 0.54375589 0.66254801 0.54188776L0.66021377 0.53945708C0.65684575 0.53588045 0.65427554 0.53419924 0.64950877 0.53294063C0.64346182 0.53410077 0.63956183 0.53600812 0.63473618 0.53982306C0.63299292 0.54368687 0.63180131 0.54721677 0.63175207 0.55149376C0.63495278 0.58088183 0.65052301 0.60659277 0.67097831 0.62715173L0.67314172 0.62929511C0.69894761 0.65505505 0.73585945 0.67133701 0.76897967 0.68526912C0.79053777 0.69430482 0.81396717 0.70355678 0.83132994 0.71975029L0.83465803 0.72368205C0.83682525 0.72623944 0.83872598 0.72880554 0.84054798 0.73162735C0.85015011 0.75018048 0.85380387 0.76898921 0.8486039 0.7894007L0.84745878 0.79349029C0.84636831 0.79755151 0.84517658 0.80141544 0.84352213 0.80528939C0.83532816 0.8219645 0.8198663 0.83425474 0.80264157 0.8405571L0.79943931 0.8416667C0.79386652 0.8437525 0.78919834 0.84569919 0.78318095 0.84535491L0.78049475 0.84461761L0.77557003 0.84953427L0.76965863 0.84560263C0.76204628 0.84604335 0.75475848 0.84635794 0.74750036 0.8437525C0.72156942 0.83235693 0.70828402 0.81309605 0.69683021 0.78823054L0.68800795 0.76933217L0.68389893 0.76061535C0.67924106 0.75073111 0.67459255 0.74083996 0.66982597 0.73100793L0.66583574 0.7226795C0.66089356 0.71215987 0.65594959 0.70224917 0.64882928 0.69301677C0.64585489 0.68935919 0.6429202 0.68578041 0.64025128 0.68189681C0.63298309 0.67080605 0.62453312 0.66252744 0.61381811 0.65477979C0.60069996 0.64534092 0.58483434 0.63492882 0.5785411 0.61940384L0.57761592 0.61651564C0.57656157 0.61355388 0.57656157 0.61355388 0.57577366 0.61036825C0.57346922 0.58846235 0.59006375 0.56644821 0.60275847 0.55015659C0.62351888 0.52357066 0.64048761 0.49473321 0.65392077 0.4638406C0.67797071 0.40848613 0.70917022 0.37893093 0.7646758 0.35442913C0.80005121 0.33883548 0.83467829 0.32509041 0.86026442 0.29500425C0.87356955 0.27759147 0.88241363 0.2525984 0.88057184 0.23060393L0.87996292 0.22617972C0.87800139 0.20652533 0.8750174 0.18669385 0.86387879 0.16987115L0.8612507 0.16620451C0.85010105 0.15033489 0.83621466 0.13497716 0.8180443 0.12704271L0.81495911 0.12589127C0.80733913 0.12298203 0.80014986 0.12013078 0.79194593 0.11974728L0.78738844 0.11999398C0.77987194 0.1183511 0.77427804 0.11797744 0.76664567 0.11918682L0.75685775 0.12097466C0.74682063 0.1220479 0.73786855 0.12372929 0.72854209 0.12761295L0.72528338 0.12902158C0.70019835 0.13980484 0.67815775 0.16519105 0.66779715 0.19000739C0.64834654 0.23689651 0.62920129 0.28798413 0.58844864 0.32056761L0.58647871 0.32057095C0.58063883 0.32567048 0.57481849 0.32809889 0.56754053 0.33070457C0.54614985 0.33827519 0.53271651 0.34301424 0.52147961 0.36382878L0.52344829 0.36579216C0.5202781 0.3689611 0.5202781 0.3689611 0.51950991 0.37956011C0.52128267 0.40193796 0.53272647 0.42166102 0.54930139 0.43645835C0.56649655 0.45100987 0.58689266 0.45516884 0.60894328 0.45380211C0.61494088 0.45339906 0.62084985 0.45324171 0.6268574 0.45330071C0.62488776 0.45526707 0.62488776 0.45526707 0.62339079 0.45792186C0.61504924 0.47395802 0.60633337 0.48899126 0.59527355 0.50329685C0.59281147 0.50646269 0.59048718 0.50964832 0.58828127 0.51299131C0.58300257 0.5211519 0.57748741 0.52886021 0.57133222 0.53638196L0.56559134 0.54339302C0.5488975 0.5655241 0.54300815 0.59336865 0.5461005 0.62044609C0.55042404 0.64342368 0.56555116 0.66149521 0.58445024 0.67458165C0.61022347 0.69221056 0.6279211 0.71658432 0.6411081 0.74461544L0.6429925 0.74863708C0.64739132 0.75802648 0.6517247 0.76744568 0.65592986 0.77693355C0.67152977 0.81219149 0.68814397 0.85414493 0.72612965 0.87090778ZM0.55971056 0.40093493C0.55476695 0.39269567 0.54906493 0.38344359 0.55102479 0.3736608C0.55402839 0.36983621 0.55589968 0.36875463 0.56066632 0.36743712C0.59675092 0.35817528 0.62743843 0.33705604 0.6467315 0.30491495L0.64852244 0.30188537C0.66056842 0.28158355 0.67115551 0.26112294 0.67979246 0.23914802L0.68635029 0.22306263L0.68792027 0.21929753C0.6973719 0.19623089 0.71232182 0.17021537 0.73624349 0.15942955L0.73913223 0.15833712C0.74829799 0.15459216 0.757851 0.15252757 0.76768947 0.15145576C0.80020881 0.15011865 0.83386087 0.16886836 0.84483194 0.20017374L0.84580994 0.20313358C0.85217881 0.22249246 0.85117435 0.23983634 0.84447753 0.259009C0.83779037 0.27467155 0.82665187 0.28905594 0.81095356 0.29633152C0.80612773 0.29847491 0.80138081 0.30071664 0.79666346 0.30306649L0.79372972 0.30452096C0.78804618 0.30736303 0.78241271 0.3102144 0.7768681 0.31331146C0.76987588 0.31732297 0.7628935 0.32104945 0.75549722 0.32424486C0.71692091 0.34081197 0.68565238 0.35751665 0.65772223 0.38943148C0.64470261 0.40474987 0.63089526 0.41810191 0.61005604 0.42152345L0.60715991 0.42183578C0.60113347 0.42264426 0.5955593 0.42291963 0.58949262 0.42238879C0.57716244 0.41859353 0.56690037 0.41165209 0.55971056 0.40093493ZM0.092084557 0.47395301C0.095964894 0.47462165 0.095964894 0.47462165 0.10094814 0.47493625C0.10831477 0.47285187 0.11065861 0.47155392 0.11473586 0.4651041C0.1160457 0.45569479 0.1160457 0.45569479 0.098929159 0.42169547C0.073116541 0.37049985 0.051125094 0.31959915 0.040301688 0.26297617L0.038193271 0.25218105C0.028660908 0.20638275 0.030945785 0.15722215 0.054168187 0.11575043L0.055646934 0.11311603C0.066252209 0.093520224 0.083555818 0.076618791 0.10091858 0.062863827C0.14565979 0.031528831 0.20429718 0.029385448 0.25653312 0.038431108L0.26147705 0.039371848C0.29389793 0.045372367 0.32518625 0.055273414 0.35585409 0.067248821L0.35996294 0.06887126C0.41170442 0.089223504 0.4620297 0.11598659 0.50617021 0.14984828L0.50849426 0.15163434C0.52278453 0.16258073 0.53655261 0.17408425 0.54708052 0.18882257C0.55581605 0.20348215 0.55947971 0.21632302 0.55628884 0.23325372C0.55093122 0.25238693 0.53991085 0.26159978 0.52344429 0.27141201C0.51976103 0.271294 0.51757467 0.27139246 0.51409817 0.27275896C0.51100582 0.27419448 0.50797248 0.27529585 0.50473231 0.27632809L0.50276262 0.27436483C0.48986131 0.27495158 0.47727513 0.27263129 0.46632361 0.26551282C0.45308739 0.25469756 0.44566166 0.23996902 0.4436723 0.22323489C0.44368213 0.20554709 0.45403284 0.18892097 0.46576232 0.17646372L0.47163987 0.1703375L0.47447717 0.16732973L0.47912568 0.16227734C0.48109627 0.15834314 0.48109627 0.15834314 0.48011136 0.15146065C0.470263 0.14162862 0.470263 0.14162862 0.46336913 0.14064533C0.45016241 0.14551222 0.43950647 0.15510833 0.43099737 0.16621858L0.42890042 0.16915536C0.41878539 0.1833657 0.41388083 0.19734693 0.41231501 0.2147007C0.41152716 0.23839593 0.41800737 0.26142275 0.43411934 0.27919912C0.45315635 0.29916811 0.47365081 0.30881333 0.5016104 0.30994403C0.52800405 0.30955076 0.54956222 0.29642487 0.56776214 0.27829468C0.58189452 0.2621994 0.59015733 0.23908424 0.58955657 0.21769941C0.58393323 0.15639621 0.51666868 0.11065763 0.46632367 0.084602475C0.46133053 0.082685173 0.45698726 0.081023633 0.452595 0.077936232C0.44640023 0.072912097 0.44050121 0.068458259 0.43321335 0.065174341C0.42953986 0.063591361 0.42598456 0.062008381 0.42247856 0.060061574C0.41051275 0.053031623 0.39776891 0.046070516 0.38428646 0.042422891C0.37601379 0.04020071 0.36826313 0.037378907 0.3604238 0.033977091C0.3478474 0.028500497 0.33538923 0.023889303 0.3221727 0.020192623C0.31508178 0.018285155 0.30803034 0.01673162 0.30159932 0.013083935C0.29791611 0.010861754 0.29791611 0.010861754 0.29453796 0.010183334L0.29102111 0.0098767281C0.28603876 0.0088561177 0.28109497 0.007892549 0.27606249 0.0071749091L0.26769984 0.0061204433L0.26467836 0.0057394505L0.2555086 0.00455302C0.24521717 0.0031436682 0.23496522 0.0017769337 0.22458483 0.001206696L0.21692204 0.00075721741L0.2063271 4.7981739e-05L0.20435807 0.0020136833L0.20238905 4.7981739e-05L0.20042002 0.0020136833L0.19844663 4.36306e-05L0.19352189 0.001028657C0.17295969 0.00071513653 0.15251431 0.0048249364 0.13289638 0.010783195L0.12950918 0.011846781C0.11803502 0.015119135 0.10790111 0.019336998 0.097737521 0.02562964L0.093071416 0.028557956C0.080611147 0.035766423 0.070585549 0.044634998 0.060431793 0.05475229L0.058352709 0.056827128C0.047540285 0.067642152 0.038105473 0.078024805 0.030453347 0.091347277C0.013799645 0.12101084 -0.0072561502 0.16952223 0.0024641603 0.20410168L0.0034483075 0.20652223L0.001479283 0.20848799C0.0020801276 0.21213448 0.0024839193 0.21570349 0.0026808828 0.21940041C0.0030452907 0.22953725 0.0040202737 0.23941839 0.0055466443 0.24943745L0.0064039975 0.25469851C0.016094364 0.31587279 0.039198689 0.37748051 0.067749172 0.43237305L0.069434404 0.43560481L0.075547546 0.44732058L0.077626258 0.45127845C0.081881523 0.45944083 0.086175546 0.46687388 0.092084557 0.47395301ZM0.45057708 0.85346115L0.45720339 0.85956872L0.45961529 0.86175764C0.52674347 0.92323005 0.62254876 0.96574402 0.70991391 0.98738432L0.71284646 0.98811316C0.72476518 0.99106169 0.73663253 0.99364746 0.74877554 0.99544668L0.75291973 0.99602866C0.76995951 0.99862242 0.78656405 0.99942887 0.80378878 0.99906504L0.80708742 0.99897957C0.82838035 0.9984653 0.84829366 0.99592865 0.86844349 0.98906577L0.87110019 0.98816144C0.89684623 0.97968602 0.92072862 0.9668355 0.94005126 0.94766295L0.9438529 0.94378519C0.957542 0.93037796 0.96806997 0.91603303 0.97685462 0.89900398L0.97874266 0.89518857C0.98487133 0.88289881 0.98958868 0.87085462 0.99256283 0.85744357L0.99322301 0.85444617C0.99606884 0.84196794 0.99859017 0.82977605 0.99901366 0.81694531L0.99942821 0.8093127C0.99989003 0.80368173 1.0002346 0.79820526 0.99980146 0.79256165L0.99913001 0.78561854C0.99707347 0.75511122 0.99247426 0.72428775 0.98373872 0.69491923C0.98256665 0.69121253 0.98144406 0.68751574 0.98052824 0.68373024C0.97854859 0.67520595 0.9760077 0.66706479 0.97296453 0.6588552L0.97123927 0.65430272L0.96752936 0.644382L0.9618547 0.62933898C0.9558087 0.61305737 0.94953507 0.5969032 0.94243443 0.58106375L0.94028759 0.57632041C0.93620044 0.56724966 0.93183768 0.55876458 0.92636186 0.55044663C0.92389005 0.54683828 0.92164463 0.54365253 0.92014754 0.53954291C0.91935974 0.53686845 0.91935974 0.53686845 0.91743934 0.53371239L0.91529119 0.5306046C0.91152042 0.52508974 0.91152042 0.52508974 0.90261745 0.52212036C0.89178419 0.52703655 0.89178419 0.52703655 0.88686001 0.53391886C0.88631839 0.54405582 0.88631839 0.54405582 0.90224314 0.57350278C0.91233784 0.59213471 0.9216544 0.61122859 0.92950356 0.6309222L0.93226242 0.63790238C0.93812215 0.65247047 0.94331759 0.66729605 0.94783145 0.68233418L0.95080799 0.69228256C0.96067375 0.72435641 0.96841466 0.75908339 0.9677645 0.79276812L0.96761703 0.79742181C0.96721303 0.81679761 0.96546996 0.83739614 0.95939332 0.85590959L0.95776761 0.86034346C0.95230263 0.87547576 0.94664973 0.8903811 0.9363876 0.90298569C0.90336591 0.94084918 0.86782306 0.96087706 0.81767493 0.964692C0.81281984 0.96499681 0.8081615 0.96524251 0.8034637 0.96658957L0.80118042 0.9675144L0.79921132 0.96554863C0.79108429 0.96716964 0.78431845 0.96660912 0.77625257 0.96512461C0.77225423 0.9643774 0.76833457 0.96364987 0.76427698 0.96327615C0.75118852 0.96251917 0.73904538 0.95950067 0.72651821 0.9557054L0.72337574 0.95473039L0.7214067 0.95669627C0.71943724 0.95473218 0.71943724 0.95473218 0.71557671 0.95347369L0.71093887 0.95214725L0.70269448 0.94981825L0.7007255 0.9517839L0.69678748 0.94785237C0.6870361 0.94682717 0.67918688 0.94312036 0.67071724 0.93844032L0.66822571 0.93703425L0.66231871 0.93899989C0.65936202 0.93605113 0.65936202 0.93605113 0.65588564 0.93490088C0.6421963 0.93128252 0.62996453 0.92581594 0.61725038 0.91971016L0.60617757 0.91442144C0.59998602 0.91203129 0.59428376 0.90948486 0.58856189 0.90615165C0.58105749 0.90174699 0.57354301 0.89754879 0.56560534 0.8939501C0.55083269 0.88728392 0.5371632 0.87894654 0.52365118 0.87001884C0.49462795 0.85044324 0.45206308 0.82208753 0.44478512 0.78516781C0.4434064 0.76931846 0.44839966 0.75717616 0.45746994 0.7443254C0.46740687 0.73235989 0.48032808 0.72533965 0.49562263 0.72306859C0.51136029 0.72177064 0.52627093 0.7260772 0.53843349 0.73613524C0.55101007 0.74790454 0.55732274 0.76205277 0.55807132 0.77935708C0.5569585 0.8025707 0.5414964 0.81851828 0.52563053 0.83380735C0.52148455 0.83773029 0.52148455 0.83773029 0.52049971 0.85051215L0.53034633 0.86034346C0.54232371 0.86034381 0.54843956 0.85649967 0.55666304 0.84838843L0.55883789 0.84615421C0.56844163 0.83639312 0.5768522 0.82656109 0.5824756 0.81394649C0.59141797 0.79034948 0.59224528 0.76653624 0.58277112 0.7429589C0.57195753 0.72028601 0.55652505 0.70578361 0.53339124 0.69631529C0.51124221 0.68800735 0.49129909 0.68585396 0.46928799 0.69516504C0.44361335 0.70811403 0.42503923 0.728073 0.41512179 0.7551409L0.41709071 0.75710857L0.41512167 0.75907433C0.41394001 0.76878762 0.41249233 0.77849185 0.41361493 0.78826499L0.41413498 0.79152024C0.4177711 0.81502807 0.43057394 0.83459389 0.44768047 0.8508265L0.45057708 0.85346115ZM0.17732251 0.86686242C0.20149329 0.88041019 0.23030972 0.88367474 0.25698912 0.87650728C0.28965628 0.86690104 0.3112931 0.84742343 0.32749376 0.81811428L0.32894105 0.81549013C0.33466333 0.80511642 0.34036559 0.79476321 0.34516186 0.78391826C0.3572261 0.75600505 0.36946759 0.7249651 0.38886893 0.70123041L0.39246267 0.69712889C0.40504009 0.6827265 0.41860139 0.67410386 0.43622994 0.66708362C0.44657069 0.66299355 0.45707899 0.65918851 0.46632653 0.65288603C0.47534764 0.64456809 0.47991735 0.63562095 0.48109913 0.62338984C0.48169994 0.60387325 0.47411668 0.58405185 0.46073276 0.56962812C0.44458127 0.55541086 0.42277694 0.54402518 0.40077567 0.54492998L0.39237499 0.54623437L0.38377535 0.54728949L0.3806442 0.54768348L0.37867516 0.54571784C0.39037573 0.52066422 0.40502042 0.49768674 0.42117161 0.47526956C0.44368511 0.44406247 0.46012205 0.41646385 0.45418346 0.37639809L0.45352411 0.37267005L0.45293206 0.36925066C0.44933802 0.35348916 0.43790412 0.33851516 0.42466784 0.32946956C0.38583565 0.30344403 0.36748806 0.26587558 0.34817547 0.22459078L0.34472826 0.21723533L0.33790034 0.20261705C0.332546 0.19095516 0.32701117 0.17951059 0.32040292 0.1684888L0.31836367 0.16513628C0.30054852 0.13570875 0.27555329 0.12546366 0.24375284 0.1160543L0.23784447 0.11802381L0.22996402 0.11408794C0.21919087 0.11581838 0.20789477 0.11694908 0.19777063 0.12115717L0.1935263 0.12293601L0.18958826 0.12293601C0.18712449 0.12567014 0.18516468 0.12762666 0.18178678 0.12915075C0.17945267 0.12994713 0.17714816 0.13085169 0.17487308 0.13180536C0.15843618 0.13985783 0.13689765 0.15888286 0.13029929 0.17618734L0.12951353 0.17897981C0.12247963 0.1987617 0.11948581 0.21712816 0.11970244 0.23801148C0.12158342 0.26328969 0.13465236 0.2875849 0.15276346 0.30476153L0.15610182 0.30777836C0.16773301 0.31831014 0.18112682 0.32605767 0.1953775 0.3325175L0.19987181 0.33452392L0.22337727 0.34503126C0.2390058 0.3517884 0.25417238 0.35904431 0.26894501 0.36751974L0.27139667 0.36892676C0.2857956 0.37718463 0.29987887 0.38603342 0.31175601 0.39773369L0.3136757 0.39970911C0.32894146 0.41528392 0.3357271 0.43230331 0.34041494 0.45330465C0.34131107 0.45752251 0.34131107 0.45752251 0.34814578 0.46411002C0.35146475 0.46522117 0.35146475 0.46522117 0.35996389 0.46411002C0.36882746 0.45526123 0.36882746 0.45526123 0.36934948 0.45232141C0.37132886 0.43559706 0.36534113 0.41290462 0.3553254 0.39911032L0.35145539 0.39412689L0.34764016 0.38910091L0.34562728 0.38649607C0.33069441 0.36694944 0.30585676 0.34702957 0.28284112 0.33807254C0.27609491 0.33554578 0.27038291 0.33273387 0.26437539 0.32874203C0.2567527 0.32360971 0.2494452 0.31930315 0.24077851 0.31619632C0.23044762 0.31258786 0.22059926 0.30841911 0.21083942 0.30351293L0.2031346 0.29963946C0.18716393 0.291852 0.17197771 0.28213787 0.16268077 0.26650476L0.16115373 0.26366484L0.15943907 0.2605958C0.150065 0.243016 0.15039985 0.22329271 0.15586573 0.20436609L0.15708855 0.20060754C0.16227703 0.18345326 0.17760114 0.16866589 0.19291547 0.15980715C0.21402046 0.1501224 0.23577569 0.1492672 0.25781626 0.15652311C0.2839343 0.16668957 0.29688489 0.18715012 0.30785599 0.21167135L0.3128776 0.22287869L0.31549999 0.22870159C0.32516953 0.25017381 0.33453542 0.27206981 0.34655023 0.29236317L0.34814882 0.29499865C0.36064345 0.31575382 0.37615469 0.33493614 0.39622581 0.34889781C0.40923536 0.35742223 0.4183057 0.36805058 0.42291492 0.38291681L0.42510271 0.38983643L0.4259491 0.39233637L0.42398006 0.39430213C0.42377162 0.40204012 0.42227471 0.40790021 0.41902471 0.41491997L0.4170863 0.4188807C0.41072255 0.43223453 0.40332645 0.44406259 0.39444321 0.45588064C0.38734245 0.46532929 0.3798281 0.47501385 0.37467745 0.48568165C0.37308198 0.4891032 0.37140769 0.49226916 0.36943805 0.49549413C0.35823065 0.5134083 0.34908152 0.53241372 0.3399618 0.55144846L0.33772492 0.55615509L0.33337465 0.56526148C0.3269226 0.57909632 0.31987101 0.59168136 0.30838794 0.60198545L0.30591807 0.60409927C0.29987887 0.60939884 0.29386148 0.6145016 0.2869972 0.6187197L0.28413171 0.62043834C0.27520853 0.62643778 0.2660889 0.63155043 0.25649673 0.63638783L0.25224158 0.63851106C0.24537778 0.64194298 0.23854306 0.64542365 0.23138317 0.64824533C0.22877339 0.64925814 0.22619313 0.65032005 0.22365233 0.6514802C0.21905297 0.65371203 0.21446374 0.65595376 0.20970696 0.65781188C0.19315168 0.66405535 0.17843834 0.67201924 0.16395128 0.68221533C0.13732126 0.70178103 0.12603481 0.73053014 0.12064782 0.76202226L0.12261539 0.76399088C0.11841232 0.77239513 0.11841232 0.77239513 0.12526676 0.80092776C0.13359854 0.8290869 0.15228099 0.85188735 0.17732251 0.86686242ZM0.066005103 0.9512893C0.088861845 0.97229409 0.11833862 0.98768604 0.14833558 0.99411237L0.1531505 0.99504364C0.17366576 0.99914634 0.19384506 1.0009264 0.21476316 0.9995302L0.22209233 0.99897957C0.24391425 0.99836993 0.26533449 0.9945451 0.28667605 0.99007154L0.29102993 0.98914647C0.30722964 0.98610926 0.32280988 0.98113418 0.33844912 0.97598231L0.34322414 0.97440112C0.38134873 0.96188295 0.41829997 0.94542396 0.45287764 0.92502248L0.45752794 0.92222762C0.46624184 0.91704881 0.4732638 0.91324365 0.47716373 0.90360832C0.4751941 0.89574254 0.4751941 0.89574254 0.47342139 0.89391375L0.4710654 0.89150655C0.46804416 0.88838804 0.4652077 0.88602841 0.46140629 0.88394403C0.45322222 0.8865298 0.45322222 0.8865298 0.43278688 0.89776802C0.42746872 0.90071762 0.42217028 0.90358841 0.41662568 0.90609574C0.41197717 0.90816021 0.40736806 0.91030371 0.40277892 0.91250634L0.39991337 0.91387427C0.39494944 0.91623271 0.38998574 0.91859245 0.38509113 0.92111909C0.37954646 0.92401946 0.37398213 0.92631054 0.36809272 0.92843425C0.36270559 0.9303515 0.35740727 0.93233764 0.35215807 0.93460894C0.34357017 0.93832517 0.33525816 0.94206154 0.32604992 0.94397879C0.31882116 0.9453553 0.31179923 0.94715452 0.30470848 0.94910133C0.294604 0.95191312 0.28453898 0.95476449 0.27427691 0.95694733C0.27017015 0.95780253 0.26618162 0.95873678 0.26214367 0.95995593C0.25292566 0.96286631 0.24457416 0.96443915 0.23489314 0.96456707C0.22567514 0.96456707 0.21576756 0.96389854 0.20686468 0.96657288L0.20436245 0.9675144L0.20239338 0.96554863C0.1994389 0.96653366 0.1994389 0.96653366 0.19537148 0.96616983C0.18685283 0.96507835 0.17824522 0.96368241 0.16964749 0.96353483L0.16300002 0.96358299L0.15905751 0.96161711L0.15610623 0.96260214L0.15178221 0.96101737L0.14601116 0.95891571C0.1410282 0.95708501 0.13609409 0.95520699 0.13099252 0.95375192C0.12310403 0.95159853 0.12310403 0.95159853 0.10893223 0.94183517L0.10489428 0.9390043L0.098987252 0.93506849C0.06529393 0.91008735 0.043469891 0.87398422 0.036861628 0.83285654L0.035956793 0.82691693C0.033197962 0.81161928 0.031986721 0.79544544 0.033739746 0.77996981C0.034291171 0.77591884 0.034872204 0.77189767 0.035256326 0.76781726C0.036782943 0.75046372 0.039156392 0.73354244 0.042987309 0.71654284L0.043832839 0.71286821C0.048758425 0.69143176 0.055800088 0.67097127 0.063747793 0.65047133L0.065500773 0.64601076C0.089786932 0.58367229 0.12397068 0.51955724 0.17089835 0.47136998L0.1741387 0.46811652C0.18521789 0.4569366 0.19604133 0.45000494 0.21125701 0.44543314C0.22475916 0.44251299 0.24072337 0.4449414 0.25255132 0.45203042C0.26558083 0.46173465 0.27602011 0.47451651 0.27896476 0.49078834C0.28027451 0.50550711 0.27708375 0.51986194 0.26837778 0.53195536C0.25412709 0.54818821 0.24221054 0.55341887 0.22085924 0.55493307C0.20412688 0.55362535 0.1918557 0.54876828 0.1800573 0.53663552L0.17453338 0.53080165L0.17180571 0.52798212C0.16846575 0.52445352 0.16514681 0.52174973 0.16103026 0.51917362C0.15216659 0.5201571 0.15216659 0.5201571 0.14231828 0.52802265C0.14120539 0.53133607 0.14120539 0.53133607 0.1413334 0.54080427C0.14826672 0.55065608 0.15543634 0.55944586 0.16460527 0.56730187C0.18403615 0.58331823 0.20687458 0.58979738 0.23187961 0.58744752C0.25904149 0.58331823 0.27747777 0.57114625 0.2946434 0.55041027C0.30636296 0.53399062 0.31278419 0.510728 0.31045014 0.49054277C0.30487597 0.46071219 0.29327449 0.43910122 0.26690048 0.42238677C0.25536796 0.41582859 0.23789686 0.4084152 0.22449321 0.41194487L0.22208798 0.41298783L0.22011895 0.41102207C0.21568888 0.41107976 0.21168047 0.41132557 0.20731765 0.41200399C0.15998629 0.42427444 0.15998629 0.42427444 0.10349596 0.50391436L0.098987207 0.51032543C0.094740666 0.51613569 0.090338498 0.52174985 0.08703924 0.52815056C0.084764242 0.53284025 0.084764242 0.53284025 0.077318832 0.54363585C0.073556766 0.54902387 0.070040829 0.55412674 0.067470521 0.56019318C0.065224983 0.56609237 0.06249702 0.57162786 0.059700005 0.57729125C0.052756988 0.59128213 0.045941837 0.60528326 0.040279016 0.61984456L0.038908124 0.62339342C0.03118892 0.64341199 0.023576207 0.6633811 0.018632203 0.68428409L0.016485848 0.69325435C0.012851253 0.70718288 0.0096012205 0.72114432 0.0069815442 0.73530269L0.0064084083 0.73842728C0.0018801242 0.76300919 0.00078704953 0.78716683 0.0022838712 0.81210101L0.0024703145 0.81512249C0.0031604022 0.82797992 0.004224062 0.84017169 0.0078581721 0.85258949L0.0093640983 0.85739708C0.018356472 0.88725746 0.031395853 0.91514122 0.052924439 0.93806958L0.056638055 0.94195521L0.066005103 0.9512893ZM0.15981622 0.8052367C0.1500947 0.78410506 0.14964153 0.76587653 0.15706718 0.74406886C0.16648224 0.71823013 0.18530257 0.70557618 0.20926371 0.69422019L0.21896562 0.68964684C0.22894081 0.68487954 0.23894686 0.68018007 0.24913993 0.67588341C0.25729442 0.67246187 0.26523221 0.6688633 0.27299267 0.66463554L0.27656704 0.66265607L0.28763998 0.65650487L0.29200771 0.65386927C0.30930382 0.64362442 0.32324904 0.63155055 0.33719444 0.61711693L0.34657893 0.60747063L0.35264814 0.60129738C0.36395255 0.58957732 0.37615469 0.57926357 0.39301509 0.57712007C0.41489828 0.57737565 0.44634414 0.58633268 0.45008659 0.61211252L0.45026577 0.61547351C0.45060849 0.62136436 0.45060849 0.62136436 0.4466297 0.62928903L0.43656594 0.63259184L0.4318561 0.63420284C0.39302492 0.64725232 0.36995023 0.67201936 0.34881538 0.70623493L0.34600002 0.71083677C0.3403064 0.71996057 0.33485049 0.7289077 0.33080292 0.73888731C0.32637107 0.75019419 0.32160437 0.76128483 0.31627637 0.77220833L0.31410983 0.77659535L0.30773795 0.78958511L0.30579525 0.793486L0.29988822 0.80528486C0.2890752 0.82433796 0.27230322 0.83718848 0.25130659 0.84336305L0.2467072 0.84461308C0.23346135 0.84888875 0.22334689 0.84874117 0.21015003 0.84498537C0.18868062 0.83827996 0.17083532 0.82520306 0.15981622 0.8052367Z"/>
</svg>
